<?xml version="1.0" encoding="UTF-8" standalone="no"?>
<svg
   xmlns:dc="http://purl.org/dc/elements/1.1/"
   xmlns:cc="http://creativecommons.org/ns#"
   xmlns:rdf="http://www.w3.org/1999/02/22-rdf-syntax-ns#"
   xmlns:svg="http://www.w3.org/2000/svg"
   xmlns="http://www.w3.org/2000/svg"
   width="16"
   height="16"
   viewBox="0 0 4.2333333 4.2333333"
   version="1.1"
   id="svg8">
  <defs
     id="defs2" />
  <metadata
     id="metadata5">
    <rdf:RDF>
      <cc:Work
         rdf:about="">
        <dc:format>image/svg+xml</dc:format>
        <dc:type
           rdf:resource="http://purl.org/dc/dcmitype/StillImage" />
        <dc:title></dc:title>
      </cc:Work>
    </rdf:RDF>
  </metadata>
  <path
     style="opacity:1;vector-effect:none;fill:#aa87de;fill-opacity:1;stroke:#5a2ca0;stroke-width:0.66666667;stroke-linecap:square;stroke-linejoin:round;stroke-miterlimit:4;stroke-dasharray:none;stroke-dashoffset:0;stroke-opacity:1"
     d="M 5.9082031 1.1738281 C 5.3980207 1.1738281 4.88819 1.2458869 4.4101562 1.390625 C 3.548365 1.6515529 2.1621094 2.8886719 2.1621094 2.8886719 C 2.1621094 2.8886719 3.621013 2.1709217 4.4101562 2.140625 C 5.4390756 2.1011069 6.6305284 2.2115529 7.40625 2.8886719 C 8.419414 3.7730539 10.404297 8.1328125 10.404297 8.1328125 L 12.652344 6.6347656 C 12.652344 6.6347656 10.290992 3.5253667 9.6542969 2.8886719 C 9.0176018 2.2519771 8.2680413 1.651553 7.40625 1.390625 C 6.9282163 1.2458869 6.4183856 1.1738281 5.9082031 1.1738281 z M 12.951172 2.140625 C 12.951172 2.140625 13.67086 3.5975752 13.701172 4.3867188 C 13.74069 5.4156377 13.628291 6.609044 12.951172 7.3847656 C 12.06679 8.3979296 7.7070312 10.380859 7.7070312 10.380859 L 9.2050781 12.628906 C 9.2050781 12.628906 12.314477 10.267554 12.951172 9.6308594 C 13.587867 8.9941647 14.188292 8.2465569 14.449219 7.3847656 C 14.738697 6.4286982 14.738697 5.3427858 14.449219 4.3867188 C 14.188291 3.5249272 12.951172 2.140625 12.951172 2.140625 z M 6.9570312 3.6386719 C 6.9570312 3.6386719 3.8476324 5.9980706 3.2109375 6.6347656 C 2.5742427 7.2714603 1.9738185 8.0210212 1.7128906 8.8828125 C 1.4234143 9.8388799 1.4234143 10.922839 1.7128906 11.878906 C 1.9738185 12.740698 3.2109375 14.126953 3.2109375 14.126953 C 3.2109375 14.126953 2.4931873 12.66805 2.4628906 11.878906 C 2.4233726 10.849987 2.5338185 9.6585341 3.2109375 8.8828125 C 4.0953196 7.8696485 8.4550781 5.8867188 8.4550781 5.8867188 L 6.9570312 3.6386719 z M 5.7597656 8.1328125 L 3.5117188 9.6308594 C 3.5117187 9.6308594 5.8711178 12.740258 6.5078125 13.376953 C 7.1445076 14.013648 7.8940677 14.616025 8.7558594 14.876953 C 9.7119264 15.166431 10.795886 15.166431 11.751953 14.876953 C 12.613744 14.616025 14 13.376953 14 13.376953 C 14 13.376953 12.541097 14.096641 11.751953 14.126953 C 10.723034 14.166471 9.531581 14.054072 8.7558594 13.376953 C 7.742695 12.492571 5.7597656 8.1328125 5.7597656 8.1328125 z "
     transform="scale(0.26458333)"
     id="path3178-1" />
  <path
     style="fill:none;fill-rule:evenodd;stroke:#2d1650;stroke-width:0.10583333;stroke-miterlimit:4;stroke-dasharray:none"
     d="m 2.1001227,2.2199908 c 0.027971,0.013987 -0.00505,0.044604 -0.023245,0.04649 -0.049301,0.00511 -0.076279,-0.051228 -0.069734,-0.09298 0.011707,-0.074685 0.09476,-0.1106608 0.1627147,-0.09298 0.099727,0.025949 0.1457963,0.1387861 0.1162248,0.2324494 C 2.2466674,2.4378112 2.1031079,2.4942089 1.9838982,2.4524417 1.8338846,2.3998801 1.767065,2.2252018 1.8211833,2.0805212 1.8867277,1.9052935 2.092727,1.8280039 2.2628373,1.8945616 c 0.200469,0.078436 0.2882576,0.315875 0.2092045,0.5113889"
     id="path5264" />
</svg>
