<?xml version="1.0" encoding="UTF-8" standalone="no"?>
<svg
   xmlns:dc="http://purl.org/dc/elements/1.1/"
   xmlns:cc="http://creativecommons.org/ns#"
   xmlns:rdf="http://www.w3.org/1999/02/22-rdf-syntax-ns#"
   xmlns:svg="http://www.w3.org/2000/svg"
   xmlns="http://www.w3.org/2000/svg"
   id="svg8"
   version="1.1"
   viewBox="0 0 4.2333333 4.2333333"
   height="16"
   width="16">
  <defs
     id="defs2" />
  <metadata
     id="metadata5">
    <rdf:RDF>
      <cc:Work
         rdf:about="">
        <dc:format>image/svg+xml</dc:format>
        <dc:type
           rdf:resource="http://purl.org/dc/dcmitype/StillImage" />
        <dc:title></dc:title>
      </cc:Work>
    </rdf:RDF>
  </metadata>
  <path
     style="fill:#abebc6;stroke:#27ae60;stroke-width:0.35277777;stroke-linecap:butt;stroke-linejoin:miter;stroke-miterlimit:4;stroke-dasharray:none;stroke-opacity:1;fill-opacity:1"
     d="m 0.26458332,1.3229165 v 1.3229171 l 1.05833448,1.3229136 1.5874991,2.9e-6 1.058333,-1.3229165 V 1.3229165 L 2.9104169,0.26458344 H 1.3229163 Z"
     id="path1758-3" />
  <path
     id="path1792-8-6"
     style="fill:none;stroke:#27ae60;stroke-width:0.17638889;stroke-linecap:butt;stroke-linejoin:miter;stroke-miterlimit:4;stroke-dasharray:none;stroke-opacity:1"
     d="M 2.9104166,1.1651329 V 2.9104166 M 0.97201941,0.75282597 1.3229167,1.2242585 H 2.9708072 L 3.2995668,0.81112407 M 1.3229167,1.1651329 V 2.9104166 M 0.97201907,3.3818488 1.3229163,2.9104163 h 1.6478905 l 0.3287596,0.4131343" />
  <path
     style="fill:#27ae60;fill-opacity:1;stroke:#abebc6;stroke-width:0.10583333;stroke-linecap:butt;stroke-linejoin:miter;stroke-miterlimit:4;stroke-dasharray:none;stroke-opacity:1"
     d="M 3.2453689,1.759655 2.865582,1.9495484 3.4887591,2.2566449 3.868546,2.0667514 Z M 2.865582,2.0446993 V 3.7533317 L 3.4352623,4.0379676 V 2.3293352 Z M 3.9097917,2.1394418 3.5300048,2.3293352 V 4.0379676 L 3.9097917,3.8480742 Z"
     id="path2011-4-0" />
  <path
     style="fill:#27ae60;fill-opacity:1;stroke:#abebc6;stroke-width:0.10583333;stroke-linecap:butt;stroke-linejoin:miter;stroke-miterlimit:4;stroke-dasharray:none;stroke-opacity:1"
     d="M 2.8062464,2.7568952 2.5216104,2.9467886 2.8062464,3.136682 3.0908823,2.9467886 Z M 2.4836317,3.0039608 V 3.858277 l 0.284636,0.1898934 V 3.1938542 Z m 0.6644227,0 -0.2850442,0.1898934 V 4.0481704 L 3.1480544,3.858277 Z"
     id="path2017-0-6" />
</svg>
