<?xml version="1.0" encoding="UTF-8" standalone="no"?>
<svg
   xmlns:dc="http://purl.org/dc/elements/1.1/"
   xmlns:cc="http://creativecommons.org/ns#"
   xmlns:rdf="http://www.w3.org/1999/02/22-rdf-syntax-ns#"
   xmlns:svg="http://www.w3.org/2000/svg"
   xmlns="http://www.w3.org/2000/svg"
   width="16"
   height="16"
   viewBox="0 0 4.2333333 4.2333333"
   version="1.1"
   id="svg8">
  <defs
     id="defs2" />
  <metadata
     id="metadata5">
    <rdf:RDF>
      <cc:Work
         rdf:about="">
        <dc:format>image/svg+xml</dc:format>
        <dc:type
           rdf:resource="http://purl.org/dc/dcmitype/StillImage" />
        <dc:title></dc:title>
      </cc:Work>
    </rdf:RDF>
  </metadata>
  <path
     id="path1758-3"
     d="m 0.26458332,1.3229165 v 1.3229171 l 1.05833448,1.3229136 1.5874991,2.9e-6 1.058333,-1.3229165 V 1.3229165 L 2.9104169,0.26458344 H 1.3229163 Z"
     style="fill:#ffeeaa;stroke:#786721;stroke-width:0.35277777;stroke-linecap:butt;stroke-linejoin:miter;stroke-miterlimit:4;stroke-dasharray:none;stroke-opacity:1" />
  <path
     d="M 2.9104166,1.1651329 V 2.9104166 M 0.97201941,0.75282597 1.3229167,1.2242585 H 2.9708072 L 3.2995668,0.81112407 M 1.3229167,1.1651329 V 2.9104166 M 0.97201907,3.3818488 1.3229163,2.9104163 h 1.6478905 l 0.3287596,0.4131343"
     style="fill:none;stroke:#786721;stroke-width:0.17638889;stroke-linecap:butt;stroke-linejoin:miter;stroke-miterlimit:4;stroke-dasharray:none;stroke-opacity:1"
     id="path1792-8-6" />
  <path
     style="color:#000000;font-style:normal;font-variant:normal;font-weight:normal;font-stretch:normal;font-size:medium;line-height:normal;font-family:sans-serif;font-variant-ligatures:normal;font-variant-position:normal;font-variant-caps:normal;font-variant-numeric:normal;font-variant-alternates:normal;font-feature-settings:normal;text-indent:0;text-align:start;text-decoration:none;text-decoration-line:none;text-decoration-style:solid;text-decoration-color:#000000;letter-spacing:normal;word-spacing:normal;text-transform:none;writing-mode:lr-tb;direction:ltr;text-orientation:mixed;dominant-baseline:auto;baseline-shift:baseline;text-anchor:start;white-space:normal;shape-padding:0;clip-rule:nonzero;display:inline;overflow:visible;visibility:visible;opacity:1;isolation:auto;mix-blend-mode:normal;color-interpolation:sRGB;color-interpolation-filters:linearRGB;solid-color:#000000;solid-opacity:1;vector-effect:none;fill:#786721;fill-opacity:1;fill-rule:nonzero;stroke:#ffeeaa;stroke-width:0.06976545;stroke-linecap:butt;stroke-linejoin:bevel;stroke-miterlimit:4;stroke-dasharray:none;stroke-dashoffset:0;stroke-opacity:1;color-rendering:auto;image-rendering:auto;shape-rendering:auto;text-rendering:auto;enable-background:accumulate"
     d="m 2.9377017,1.8944873 -0.1055231,0.42106 C 2.5036174,2.4276278 2.2383531,2.684645 2.2383531,3.0500615 c 0,0.3371261 0.2320692,0.5722993 0.5214075,0.7034854 L 2.6645822,3.9759707 2.920111,4.0856305 3.0163223,3.8611358 c 0.021293,0.00159 0.034164,0.022776 0.055866,0.022776 0.2294737,0 0.4399531,-0.093383 0.5907217,-0.244146 L 3.4653118,3.4421686 C 3.3816275,3.5258476 3.2615276,3.5609178 3.1383979,3.5776928 L 3.3411651,3.10491 3.212887,2.9104163 H 2.9708068 L 3.0742588,2.49557 c 0.1530514,5.297e-4 0.2910174,0.061353 0.391053,0.1613886 L 3.6629094,2.4603939 C 3.5287729,2.3262627 3.3371819,2.2611066 3.1373651,2.2431451 L 3.207712,1.9627849 Z M 2.7545856,2.6259034 2.6573415,3.0159235 2.7928657,3.1897278 H 3.0008079 L 2.8611416,3.5176746 C 2.6698896,3.430399 2.5176804,3.275266 2.5176804,3.0500615 c 0,-0.1833598 0.1012009,-0.3233174 0.2369052,-0.4241581 z"
     id="path1336-7-1-8" />
</svg>
