<?xml version="1.0" encoding="UTF-8" standalone="no"?>
<svg
   xmlns:dc="http://purl.org/dc/elements/1.1/"
   xmlns:cc="http://creativecommons.org/ns#"
   xmlns:rdf="http://www.w3.org/1999/02/22-rdf-syntax-ns#"
   xmlns:svg="http://www.w3.org/2000/svg"
   xmlns="http://www.w3.org/2000/svg"
   id="svg8"
   version="1.1"
   viewBox="0 0 4.2333333 4.2333333"
   height="16"
   width="16">
  <defs
     id="defs2" />
  <metadata
     id="metadata5">
    <rdf:RDF>
      <cc:Work
         rdf:about="">
        <dc:format>image/svg+xml</dc:format>
        <dc:type
           rdf:resource="http://purl.org/dc/dcmitype/StillImage" />
        <dc:title></dc:title>
      </cc:Work>
    </rdf:RDF>
  </metadata>
  <path
     style="fill:#ffeeaa;stroke:#786721;stroke-width:0.35277777;stroke-linecap:butt;stroke-linejoin:miter;stroke-miterlimit:4;stroke-dasharray:none;stroke-opacity:1"
     d="m 0.26458332,1.3229165 v 1.3229171 l 1.05833448,1.3229136 1.5874991,2.9e-6 1.058333,-1.3229165 V 1.3229165 L 2.9104169,0.26458344 H 1.3229163 Z"
     id="path1758-3" />
  <path
     id="path1792-8-6"
     style="fill:none;stroke:#786721;stroke-width:0.17638889;stroke-linecap:butt;stroke-linejoin:miter;stroke-miterlimit:4;stroke-dasharray:none;stroke-opacity:1"
     d="M 2.9104166,1.1651329 V 2.9104166 M 0.97201941,0.75282597 1.3229167,1.2242585 H 2.9708072 L 3.2995668,0.81112407 M 1.3229167,1.1651329 V 2.9104166 M 0.97201907,3.3818488 1.3229163,2.9104163 h 1.6478905 l 0.3287596,0.4131343" />
  <g
     transform="matrix(0.53567992,0,0,0.53567992,-232.65335,-53.198803)"
     id="g1340-63-6-7"
     style="fill:none;stroke:#ffeeaa;stroke-width:0.32928038;stroke-miterlimit:4;stroke-dasharray:none;stroke-opacity:1">
    <path
       id="path1336-7-1-8"
       d="m 440.54102,102.99609 -0.19922,0.79493 c -0.6203,0.2116 -1.1211,0.69683 -1.1211,1.38671 0,0.63647 0.43813,1.08046 0.98438,1.32813 l -0.17969,0.41992 0.48242,0.20703 0.18164,-0.42383 c 0.0402,0.003 0.0645,0.043 0.10547,0.043 0.43323,0 0.8306,-0.1763 1.11524,-0.46093 l -0.37305,-0.37305 c -0.15799,0.15798 -0.38473,0.22419 -0.61719,0.25586 l 0.38281,-0.89258 -0.24218,-0.36719 h -0.45703 l 0.19531,-0.7832 c 0.28895,0.001 0.54942,0.11583 0.73828,0.30469 l 0.37305,-0.3711 c -0.25324,-0.25323 -0.61495,-0.37624 -0.99219,-0.41015 l 0.13281,-0.5293 z m -0.34571,1.38086 -0.18359,0.73633 0.25586,0.32813 h 0.39258 l -0.26368,0.61914 c -0.36107,-0.16477 -0.64843,-0.45765 -0.64843,-0.88282 0,-0.34617 0.19106,-0.6104 0.44726,-0.80078 z"
       style="color:#000000;font-style:normal;font-variant:normal;font-weight:normal;font-stretch:normal;font-size:medium;line-height:normal;font-family:sans-serif;font-variant-ligatures:normal;font-variant-position:normal;font-variant-caps:normal;font-variant-numeric:normal;font-variant-alternates:normal;font-feature-settings:normal;text-indent:0;text-align:start;text-decoration:none;text-decoration-line:none;text-decoration-style:solid;text-decoration-color:#000000;letter-spacing:normal;word-spacing:normal;text-transform:none;writing-mode:lr-tb;direction:ltr;text-orientation:mixed;dominant-baseline:auto;baseline-shift:baseline;text-anchor:start;white-space:normal;shape-padding:0;clip-rule:nonzero;display:inline;overflow:visible;visibility:visible;opacity:1;isolation:auto;mix-blend-mode:normal;color-interpolation:sRGB;color-interpolation-filters:linearRGB;solid-color:#000000;solid-opacity:1;vector-effect:none;fill:#786721;fill-opacity:1;fill-rule:nonzero;stroke:#ffeeaa;stroke-width:0.13171215;stroke-linecap:butt;stroke-linejoin:bevel;stroke-miterlimit:4;stroke-dasharray:none;stroke-dashoffset:0;stroke-opacity:1;color-rendering:auto;image-rendering:auto;shape-rendering:auto;text-rendering:auto;enable-background:accumulate" />
  </g>
</svg>
