<?xml version="1.0" encoding="UTF-8" standalone="no"?>
<svg
   xmlns:dc="http://purl.org/dc/elements/1.1/"
   xmlns:cc="http://creativecommons.org/ns#"
   xmlns:rdf="http://www.w3.org/1999/02/22-rdf-syntax-ns#"
   xmlns:svg="http://www.w3.org/2000/svg"
   xmlns="http://www.w3.org/2000/svg"
   id="svg8"
   version="1.1"
   viewBox="0 0 4.2333333 4.2333333"
   height="16"
   width="16">
  <defs
     id="defs2" />
  <metadata
     id="metadata5">
    <rdf:RDF>
      <cc:Work
         rdf:about="">
        <dc:format>image/svg+xml</dc:format>
        <dc:type
           rdf:resource="http://purl.org/dc/dcmitype/StillImage" />
        <dc:title></dc:title>
      </cc:Work>
    </rdf:RDF>
  </metadata>
  <path
     style="fill:#ffeeaa;stroke:#786721;stroke-width:0.35277777;stroke-linecap:butt;stroke-linejoin:miter;stroke-miterlimit:4;stroke-dasharray:none;stroke-opacity:1"
     d="m 0.26458332,1.3229165 v 1.3229171 l 1.05833448,1.3229136 1.5874991,2.9e-6 1.058333,-1.3229165 V 1.3229165 L 2.9104169,0.26458344 H 1.3229163 Z"
     id="path1758-3" />
  <path
     id="path1792-8-6"
     style="fill:none;stroke:#786721;stroke-width:0.17638889;stroke-linecap:butt;stroke-linejoin:miter;stroke-miterlimit:4;stroke-dasharray:none;stroke-opacity:1"
     d="M 2.9104166,1.1651329 V 2.9104166 M 0.97201941,0.75282597 1.3229167,1.2242585 H 2.9708072 L 3.2995668,0.81112407 M 1.3229167,1.1651329 V 2.9104166 M 0.97201907,3.3818488 1.3229163,2.9104163 h 1.6478905 l 0.3287596,0.4131343" />
  <path
     id="path1336-7-1-8"
     d="M 2.4431967,1.362735 2.3376736,1.783795 C 2.0091124,1.8958755 1.7438481,2.1528927 1.7438481,2.5183092 c 0,0.3371261 0.2320692,0.5722993 0.5214075,0.7034854 L 2.1700772,3.4442184 2.425606,3.5538782 2.5218173,3.3293835 c 0.021293,0.00159 0.034164,0.022776 0.055866,0.022776 0.2294737,0 0.4399531,-0.093383 0.5907217,-0.244146 L 2.9708068,2.9104163 C 2.8871225,2.9940953 2.7670226,3.0291655 2.6438929,3.0459405 L 2.8466601,2.5731577 2.718382,2.378664 H 2.4763018 l 0.103452,-0.4148463 c 0.1530514,5.297e-4 0.2910174,0.061353 0.391053,0.1613886 L 3.1684044,1.9286416 C 3.0342679,1.7945104 2.8426769,1.7293543 2.6428601,1.7113928 L 2.713207,1.4310326 Z M 2.2600806,2.0941511 2.1628365,2.4841712 2.2983607,2.6579755 H 2.5063029 L 2.3666366,2.9859223 C 2.1753846,2.8986467 2.0231754,2.7435137 2.0231754,2.5183092 c 0,-0.1833598 0.1012009,-0.3233174 0.2369052,-0.4241581 z"
     style="color:#000000;font-style:normal;font-variant:normal;font-weight:normal;font-stretch:normal;font-size:medium;line-height:normal;font-family:sans-serif;font-variant-ligatures:normal;font-variant-position:normal;font-variant-caps:normal;font-variant-numeric:normal;font-variant-alternates:normal;font-feature-settings:normal;text-indent:0;text-align:start;text-decoration:none;text-decoration-line:none;text-decoration-style:solid;text-decoration-color:#000000;letter-spacing:normal;word-spacing:normal;text-transform:none;writing-mode:lr-tb;direction:ltr;text-orientation:mixed;dominant-baseline:auto;baseline-shift:baseline;text-anchor:start;white-space:normal;shape-padding:0;clip-rule:nonzero;display:inline;overflow:visible;visibility:visible;opacity:1;isolation:auto;mix-blend-mode:normal;color-interpolation:sRGB;color-interpolation-filters:linearRGB;solid-color:#000000;solid-opacity:1;vector-effect:none;fill:#786721;fill-opacity:1;fill-rule:nonzero;stroke:#ffeeaa;stroke-width:0.06976545;stroke-linecap:butt;stroke-linejoin:bevel;stroke-miterlimit:4;stroke-dasharray:none;stroke-dashoffset:0;stroke-opacity:1;color-rendering:auto;image-rendering:auto;shape-rendering:auto;text-rendering:auto;enable-background:accumulate" />
</svg>
