<?xml version="1.0" encoding="UTF-8" standalone="no"?>
<svg
   xmlns:dc="http://purl.org/dc/elements/1.1/"
   xmlns:cc="http://creativecommons.org/ns#"
   xmlns:rdf="http://www.w3.org/1999/02/22-rdf-syntax-ns#"
   xmlns:svg="http://www.w3.org/2000/svg"
   xmlns="http://www.w3.org/2000/svg"
   id="svg13323"
   version="1.1"
   viewBox="0 0 123.825 15.875"
   height="60"
   width="468">
  <defs
     id="defs13317" />
  <metadata
     id="metadata13320">
    <rdf:RDF>
      <cc:Work
         rdf:about="">
        <dc:format>image/svg+xml</dc:format>
        <dc:type
           rdf:resource="http://purl.org/dc/dcmitype/StillImage" />
        <dc:title></dc:title>
      </cc:Work>
    </rdf:RDF>
  </metadata>
  <g
     aria-label="DOWNLOAD"
     id="text855"
     style="font-size:8.46667px;line-height:1.25;font-family:Orbitron;-inkscape-font-specification:Orbitron;letter-spacing:0px;word-spacing:0px;fill:#f2f2f2;fill-opacity:1;stroke:#333333;stroke-width:0.264583;stroke-miterlimit:4;stroke-dasharray:none;stroke-opacity:1"
     transform="translate(-0.0554012,-0.68963619)">
    <path
       d="M 3.2247087,11.152297 V 5.0562946 h 5.080002 q 0.2794002,0 0.5080002,0.1354667 0.2370668,0.1354667 0.3725335,0.3725335 0.1354668,0.2286001 0.1354668,0.5080002 v 4.064002 q 0,0.2794 -0.1354668,0.516466 -0.1354667,0.228601 -0.3725335,0.364067 -0.2286,0.135467 -0.5080002,0.135467 z m 1.0160004,-0.6858 h 4.0640016 q 0.1354668,0 0.2286001,-0.09313 0.1016001,-0.1016 0.1016001,-0.237066 V 6.072295 q 0,-0.1354667 -0.1016001,-0.2286001 -0.093133,-0.1016 -0.2286001,-0.1016 H 4.2407091 q -0.1354667,0 -0.2370667,0.1016 -0.093133,0.093133 -0.093133,0.2286001 v 4.064002 q 0,0.135466 0.093133,0.237066 0.1016,0.09313 0.2370667,0.09313 z"
       style="font-size:8.46667px;fill:#f2f2f2;fill-opacity:1;stroke:#333333;stroke-width:0.264583;stroke-miterlimit:4;stroke-dasharray:none;stroke-opacity:1"
       id="path853" />
    <path
       d="m 11.268042,11.152297 q -0.2794,0 -0.516467,-0.135467 -0.2286,-0.135466 -0.364067,-0.364067 -0.135466,-0.237066 -0.135466,-0.516466 V 6.072295 q 0,-0.2794001 0.135466,-0.5080002 0.135467,-0.2370668 0.364067,-0.3725335 0.237067,-0.1354667 0.516467,-0.1354667 h 4.064002 q 0.2794,0 0.508,0.1354667 0.237067,0.1354667 0.372533,0.3725335 0.135467,0.2286001 0.135467,0.5080002 v 4.064002 q 0,0.2794 -0.135467,0.516466 -0.135466,0.228601 -0.372533,0.364067 -0.2286,0.135467 -0.508,0.135467 z m 0,-0.6858 h 4.064002 q 0.135466,0 0.2286,-0.09313 0.1016,-0.1016 0.1016,-0.237066 V 6.072295 q 0,-0.1354667 -0.1016,-0.2286001 -0.09313,-0.1016 -0.2286,-0.1016 h -4.064002 q -0.135467,0 -0.237067,0.1016 -0.09313,0.093133 -0.09313,0.2286001 v 4.064002 q 0,0.135466 0.09313,0.237066 0.1016,0.09313 0.237067,0.09313 z"
       style="font-size:8.46667px;fill:#f2f2f2;fill-opacity:1;stroke:#333333;stroke-width:0.264583;stroke-miterlimit:4;stroke-dasharray:none;stroke-opacity:1"
       id="path855" />
    <path
       d="m 19.091234,11.152297 v 0 L 16.872966,5.0562946 H 17.6011 l 1.786467,4.8937353 1.778001,-4.8937353 h 0.829734 l 1.786467,4.8937353 1.769534,-4.8937353 H 26.29637 L 24.078102,11.152297 H 23.476969 L 21.580435,5.9452949 19.683901,11.152297 Z"
       style="font-size:8.46667px;fill:#f2f2f2;fill-opacity:1;stroke:#333333;stroke-width:0.264583;stroke-miterlimit:4;stroke-dasharray:none;stroke-opacity:1"
       id="path857" />
    <path
       d="M 27.032978,11.152297 V 5.0562946 h 0.939801 L 32.44318,10.373363 V 5.0562946 h 0.685801 V 11.152297 H 32.18918 L 27.718779,5.8352282 v 5.3170688 z"
       style="font-size:8.46667px;fill:#f2f2f2;fill-opacity:1;stroke:#333333;stroke-width:0.264583;stroke-miterlimit:4;stroke-dasharray:none;stroke-opacity:1"
       id="path859" />
    <path
       d="M 34.08572,11.152297 V 5.0478279 h 0.685801 v 5.4186691 h 5.410202 v 0.6858 z"
       style="font-size:8.46667px;fill:#f2f2f2;fill-opacity:1;stroke:#333333;stroke-width:0.264583;stroke-miterlimit:4;stroke-dasharray:none;stroke-opacity:1"
       id="path861" />
    <path
       d="m 41.67185,11.152297 q -0.2794,0 -0.516467,-0.135467 -0.2286,-0.135466 -0.364066,-0.364067 Q 40.65585,10.415697 40.65585,10.136297 V 6.072295 q 0,-0.2794001 0.135467,-0.5080002 Q 40.926783,5.327228 41.155383,5.1917613 41.39245,5.0562946 41.67185,5.0562946 h 4.064002 q 0.2794,0 0.508,0.1354667 0.237067,0.1354667 0.372534,0.3725335 0.135466,0.2286001 0.135466,0.5080002 v 4.064002 q 0,0.2794 -0.135466,0.516466 -0.135467,0.228601 -0.372534,0.364067 -0.2286,0.135467 -0.508,0.135467 z m 0,-0.6858 h 4.064002 q 0.135467,0 0.2286,-0.09313 0.1016,-0.1016 0.1016,-0.237066 V 6.072295 q 0,-0.1354667 -0.1016,-0.2286001 -0.09313,-0.1016 -0.2286,-0.1016 H 41.67185 q -0.135466,0 -0.237067,0.1016 -0.09313,0.093133 -0.09313,0.2286001 v 4.064002 q 0,0.135466 0.09313,0.237066 0.101601,0.09313 0.237067,0.09313 z"
       style="font-size:8.46667px;fill:#f2f2f2;fill-opacity:1;stroke:#333333;stroke-width:0.264583;stroke-miterlimit:4;stroke-dasharray:none;stroke-opacity:1"
       id="path863" />
    <path
       d="M 47.700112,11.152297 V 6.072295 q 0,-0.2794001 0.135466,-0.5080002 0.135467,-0.2370668 0.364067,-0.3725335 0.237067,-0.1354667 0.516467,-0.1354667 h 4.064002 q 0.2794,0 0.508,0.1354667 0.237067,0.1354667 0.372533,0.3725335 0.135467,0.2286001 0.135467,0.5080002 v 5.080002 h -0.6858 V 8.9255628 h -4.724402 v 2.2267342 z m 0.6858,-2.9125345 h 4.724402 V 6.072295 q 0,-0.1354667 -0.1016,-0.2286001 -0.09313,-0.1016 -0.2286,-0.1016 h -4.064002 q -0.135467,0 -0.237067,0.1016 -0.09313,0.093133 -0.09313,0.2286001 v 2.1674675 z"
       style="font-size:8.46667px;fill:#f2f2f2;fill-opacity:1;stroke:#333333;stroke-width:0.264583;stroke-miterlimit:4;stroke-dasharray:none;stroke-opacity:1"
       id="path865" />
    <path
       d="M 54.778252,11.152297 V 5.0562946 h 5.080002 q 0.2794,0 0.508,0.1354667 0.237067,0.1354667 0.372534,0.3725335 0.135466,0.2286001 0.135466,0.5080002 v 4.064002 q 0,0.2794 -0.135466,0.516466 -0.135467,0.228601 -0.372534,0.364067 -0.2286,0.135467 -0.508,0.135467 z m 1.016,-0.6858 h 4.064002 q 0.135467,0 0.2286,-0.09313 0.1016,-0.1016 0.1016,-0.237066 V 6.072295 q 0,-0.1354667 -0.1016,-0.2286001 -0.09313,-0.1016 -0.2286,-0.1016 h -4.064002 q -0.135467,0 -0.237067,0.1016 -0.09313,0.093133 -0.09313,0.2286001 v 4.064002 q 0,0.135466 0.09313,0.237066 0.1016,0.09313 0.237067,0.09313 z"
       style="font-size:8.46667px;fill:#f2f2f2;fill-opacity:1;stroke:#333333;stroke-width:0.264583;stroke-miterlimit:4;stroke-dasharray:none;stroke-opacity:1"
       id="path867" />
  </g>
</svg>
