<?xml version="1.0" encoding="UTF-8" standalone="no"?>
<svg
   xmlns:dc="http://purl.org/dc/elements/1.1/"
   xmlns:cc="http://creativecommons.org/ns#"
   xmlns:rdf="http://www.w3.org/1999/02/22-rdf-syntax-ns#"
   xmlns:svg="http://www.w3.org/2000/svg"
   xmlns="http://www.w3.org/2000/svg"
   id="svg13323"
   version="1.1"
   viewBox="0 0 123.825 15.875"
   height="60"
   width="468">
  <defs
     id="defs13317" />
  <metadata
     id="metadata13320">
    <rdf:RDF>
      <cc:Work
         rdf:about="">
        <dc:format>image/svg+xml</dc:format>
        <dc:type
           rdf:resource="http://purl.org/dc/dcmitype/StillImage" />
        <dc:title></dc:title>
      </cc:Work>
    </rdf:RDF>
  </metadata>
  <g
     transform="translate(0,-281.125)"
     id="layer1">
    <g
       id="text942"
       style="font-style:normal;font-variant:normal;font-weight:normal;font-stretch:normal;font-size:3.30729151px;line-height:125%;font-family:'DejaVu Sans Mono';-inkscape-font-specification:'DejaVu Sans Mono';text-align:start;letter-spacing:0px;word-spacing:0px;text-anchor:start;fill:#f2f2f2;fill-opacity:1;stroke:#333333;stroke-width:0.26458332px;stroke-linecap:butt;stroke-linejoin:miter;stroke-opacity:1"
       aria-label="LEGEND">
      <path
         id="path944"
         style="font-style:normal;font-variant:normal;font-weight:normal;font-stretch:normal;font-size:8.46666622px;font-family:Orbitron;-inkscape-font-specification:Orbitron;stroke-width:0.26458332px;fill:#f2f2f2;fill-opacity:1;stroke:#333333;stroke-opacity:1"
         d="m 3.3819342,291.6546 v -6.10446 h 0.6857999 v 5.41866 h 5.4101997 v 0.6858 z" />
      <path
         id="path946"
         style="font-style:normal;font-variant:normal;font-weight:normal;font-stretch:normal;font-size:8.46666622px;font-family:Orbitron;-inkscape-font-specification:Orbitron;stroke-width:0.26458332px;fill:#f2f2f2;fill-opacity:1;stroke:#333333;stroke-opacity:1"
         d="m 9.985928,291.6546 v -6.096 h 5.5626 v 0.6858 h -4.8768 v 2.01507 h 3.920066 v 0.69427 h -3.920066 v 2.01506 h 4.8768 v 0.6858 z" />
      <path
         id="path948"
         style="font-style:normal;font-variant:normal;font-weight:normal;font-stretch:normal;font-size:8.46666622px;font-family:Orbitron;-inkscape-font-specification:Orbitron;stroke-width:0.26458332px;fill:#f2f2f2;fill-opacity:1;stroke:#333333;stroke-opacity:1"
         d="m 17.470452,291.6546 q -0.2794,0 -0.516467,-0.13546 -0.2286,-0.13547 -0.364067,-0.36407 -0.135466,-0.23707 -0.135466,-0.51647 v -4.064 q 0,-0.2794 0.135466,-0.508 0.135467,-0.23706 0.364067,-0.37253 0.237067,-0.13547 0.516467,-0.13547 h 4.063999 q 0.2794,0 0.508,0.13547 0.237067,0.13547 0.372534,0.37253 0.135466,0.2286 0.135466,0.508 v 0.24554 h -0.6858 v -0.24554 q 0,-0.13546 -0.1016,-0.2286 -0.09313,-0.1016 -0.2286,-0.1016 h -4.063999 q -0.135467,0 -0.237067,0.1016 -0.09313,0.0931 -0.09313,0.2286 v 4.064 q 0,0.13547 0.09313,0.23707 0.1016,0.0931 0.237067,0.0931 h 4.063999 q 0.135467,0 0.2286,-0.0931 0.1016,-0.1016 0.1016,-0.23707 v -1.50706 h -1.507066 v -0.69427 h 2.192866 v 2.20133 q 0,0.2794 -0.135466,0.51647 -0.135467,0.2286 -0.372534,0.36407 -0.2286,0.13546 -0.508,0.13546 z" />
      <path
         id="path950"
         style="font-style:normal;font-variant:normal;font-weight:normal;font-stretch:normal;font-size:8.46666622px;font-family:Orbitron;-inkscape-font-specification:Orbitron;stroke-width:0.26458332px;fill:#f2f2f2;fill-opacity:1;stroke:#333333;stroke-opacity:1"
         d="m 23.498717,291.6546 v -6.096 h 5.5626 v 0.6858 h -4.8768 v 2.01507 h 3.920067 v 0.69427 h -3.920067 v 2.01506 h 4.8768 v 0.6858 z" />
      <path
         id="path952"
         style="font-style:normal;font-variant:normal;font-weight:normal;font-stretch:normal;font-size:8.46666622px;font-family:Orbitron;-inkscape-font-specification:Orbitron;stroke-width:0.26458332px;fill:#f2f2f2;fill-opacity:1;stroke:#333333;stroke-opacity:1"
         d="m 29.96724,291.6546 v -6.096 h 0.9398 l 4.4704,5.31707 v -5.31707 h 0.6858 v 6.096 h -0.9398 l -4.4704,-5.31706 v 5.31706 z" />
      <path
         id="path954"
         style="font-style:normal;font-variant:normal;font-weight:normal;font-stretch:normal;font-size:8.46666622px;font-family:Orbitron;-inkscape-font-specification:Orbitron;stroke-width:0.26458332px;fill:#f2f2f2;fill-opacity:1;stroke:#333333;stroke-opacity:1"
         d="m 37.028428,291.6546 v -6.096 h 5.08 q 0.2794,0 0.508,0.13547 0.237066,0.13547 0.372533,0.37253 0.135467,0.2286 0.135467,0.508 v 4.064 q 0,0.2794 -0.135467,0.51647 -0.135467,0.2286 -0.372533,0.36407 -0.2286,0.13546 -0.508,0.13546 z m 1.016,-0.6858 h 4.064 q 0.135466,0 0.2286,-0.0931 0.1016,-0.1016 0.1016,-0.23707 v -4.064 q 0,-0.13546 -0.1016,-0.2286 -0.09313,-0.1016 -0.2286,-0.1016 h -4.064 q -0.135467,0 -0.237067,0.1016 -0.09313,0.0931 -0.09313,0.2286 v 4.064 q 0,0.13547 0.09313,0.23707 0.1016,0.0931 0.237067,0.0931 z" />
    </g>
  </g>
</svg>
